<?xml version="1.0" encoding="UTF-8"?><svg id="Layer_1" xmlns="http://www.w3.org/2000/svg" viewBox="0 0 64 32"><g><path d="M0,27c6.02,0,9.85,2.23,13.05,5h-1.56c-2.89-2.32-6.32-4-11.49-4v-1Z"/><path d="M64,27v1c-5.17,0-8.6,1.68-11.49,4h-1.56c3.2-2.77,7.03-5,13.05-5Z"/></g><g><path d="M16.35,27.14c1.76,1.76,3.49,3.48,5.52,4.86h-1.69c-1.65-1.26-3.1-2.71-4.53-4.15-4.04-4.04-7.86-7.85-15.65-7.85v-1c8.21,0,12.35,4.14,16.35,8.14Z"/><path d="M64,19v1c-7.79,0-11.61,3.81-15.65,7.85-1.43,1.44-2.88,2.89-4.53,4.15h-1.69c2.03-1.38,3.76-3.1,5.52-4.86,4-4,8.14-8.14,16.35-8.14Z"/></g><path d="M32,28c-8.21,0-12.35-4.14-16.35-8.15C11.61,15.81,7.79,12,0,12v-1c8.21,0,12.35,4.14,16.35,8.15,4.04,4.04,7.85,7.85,15.65,7.85s11.61-3.81,15.65-7.85c4-4,8.15-8.15,16.35-8.15v1c-7.79,0-11.61,3.81-15.65,7.85-4,4-8.15,8.15-16.35,8.15Z"/><path d="M32,20c-8.21,0-12.35-4.14-16.35-8.15C11.61,7.81,7.79,4,0,4v-1c8.21,0,12.35,4.14,16.35,8.15,4.04,4.04,7.85,7.85,15.65,7.85s11.61-3.81,15.65-7.85c4-4,8.15-8.15,16.35-8.15v1c-7.79,0-11.61,3.81-15.65,7.85-4,4-8.15,8.15-16.35,8.15Z"/><path d="M52.51,0c-1.47,1.16-2.8,2.49-4.16,3.85-4,4.01-8.14,8.15-16.35,8.15S19.65,7.86,15.65,3.85c-1.36-1.36-2.69-2.69-4.16-3.85h1.56c1.16,1,2.23,2.07,3.3,3.14,4.04,4.04,7.86,7.86,15.65,7.86s11.61-3.82,15.65-7.86c1.07-1.07,2.14-2.14,3.3-3.14h1.56Z"/><path d="M43.82,0c-2.96,2.29-6.55,4-11.82,4S23.14,2.29,20.18,0h1.69c2.61,1.79,5.74,3,10.13,3s7.52-1.21,10.13-3h1.69Z"/></svg>